<mxfile host="app.diagrams.net" agent="Mozilla/5.0 (Windows NT 10.0; Win64; x64) AppleWebKit/537.36 (KHTML, like Gecko) Chrome/131.0.0.0 Safari/537.36 Edg/131.0.0.0" version="25.0.3">
  <diagram name="第 1 页" id="oXtViVW0W3BGP-9bD71g">
    <mxGraphModel dx="797" dy="444" grid="1" gridSize="10" guides="1" tooltips="1" connect="1" arrows="1" fold="1" page="1" pageScale="1" pageWidth="827" pageHeight="1169" math="0" shadow="0">
      <root>
        <mxCell id="0" />
        <mxCell id="1" parent="0" />
        <mxCell id="SVwP42pwTf9vh0mIJkaT-10" value="&lt;span style=&quot;font-size: 14px;&quot;&gt;產品&lt;/span&gt;" style="swimlane;fontStyle=0;childLayout=stackLayout;horizontal=1;startSize=26;fillColor=none;horizontalStack=0;resizeParent=1;resizeParentMax=0;resizeLast=0;collapsible=1;marginBottom=0;whiteSpace=wrap;html=1;" vertex="1" parent="1">
          <mxGeometry x="360" y="110" width="140" height="142" as="geometry" />
        </mxCell>
        <mxCell id="SVwP42pwTf9vh0mIJkaT-11" value="&lt;span style=&quot;text-wrap-mode: nowrap;&quot;&gt;狀態:boolean&lt;/span&gt;" style="text;strokeColor=none;fillColor=none;align=left;verticalAlign=top;spacingLeft=4;spacingRight=4;overflow=hidden;rotatable=0;points=[[0,0.5],[1,0.5]];portConstraint=eastwest;whiteSpace=wrap;html=1;" vertex="1" parent="SVwP42pwTf9vh0mIJkaT-10">
          <mxGeometry y="26" width="140" height="26" as="geometry" />
        </mxCell>
        <mxCell id="SVwP42pwTf9vh0mIJkaT-12" value="&lt;span style=&quot;text-wrap-mode: nowrap;&quot;&gt;庫存:int(0..20)&lt;/span&gt;" style="text;strokeColor=none;fillColor=none;align=left;verticalAlign=top;spacingLeft=4;spacingRight=4;overflow=hidden;rotatable=0;points=[[0,0.5],[1,0.5]];portConstraint=eastwest;whiteSpace=wrap;html=1;" vertex="1" parent="SVwP42pwTf9vh0mIJkaT-10">
          <mxGeometry y="52" width="140" height="26" as="geometry" />
        </mxCell>
        <mxCell id="SVwP42pwTf9vh0mIJkaT-13" value="&lt;span style=&quot;text-wrap-mode: nowrap;&quot;&gt;金額:int (1..*)&lt;/span&gt;" style="text;strokeColor=none;fillColor=none;align=left;verticalAlign=top;spacingLeft=4;spacingRight=4;overflow=hidden;rotatable=0;points=[[0,0.5],[1,0.5]];portConstraint=eastwest;whiteSpace=wrap;html=1;" vertex="1" parent="SVwP42pwTf9vh0mIJkaT-10">
          <mxGeometry y="78" width="140" height="32" as="geometry" />
        </mxCell>
        <mxCell id="SVwP42pwTf9vh0mIJkaT-46" value="&lt;span style=&quot;text-wrap-mode: nowrap;&quot;&gt;名稱:char&lt;/span&gt;" style="text;strokeColor=none;fillColor=none;align=left;verticalAlign=top;spacingLeft=4;spacingRight=4;overflow=hidden;rotatable=0;points=[[0,0.5],[1,0.5]];portConstraint=eastwest;whiteSpace=wrap;html=1;" vertex="1" parent="SVwP42pwTf9vh0mIJkaT-10">
          <mxGeometry y="110" width="140" height="32" as="geometry" />
        </mxCell>
        <mxCell id="SVwP42pwTf9vh0mIJkaT-50" style="edgeStyle=orthogonalEdgeStyle;rounded=0;orthogonalLoop=1;jettySize=auto;html=1;endArrow=none;endFill=0;" edge="1" parent="1" source="SVwP42pwTf9vh0mIJkaT-14">
          <mxGeometry relative="1" as="geometry">
            <mxPoint x="140" y="160" as="targetPoint" />
          </mxGeometry>
        </mxCell>
        <mxCell id="SVwP42pwTf9vh0mIJkaT-14" value="&lt;span style=&quot;font-size: 14px;&quot;&gt;人&lt;/span&gt;" style="swimlane;fontStyle=0;childLayout=stackLayout;horizontal=1;startSize=26;fillColor=none;horizontalStack=0;resizeParent=1;resizeParentMax=0;resizeLast=0;collapsible=1;marginBottom=0;whiteSpace=wrap;html=1;" vertex="1" parent="1">
          <mxGeometry x="200" y="280" width="140" height="52" as="geometry" />
        </mxCell>
        <mxCell id="SVwP42pwTf9vh0mIJkaT-15" value="&lt;span style=&quot;text-wrap-mode: nowrap;&quot;&gt;權限:boolean&lt;/span&gt;" style="text;strokeColor=none;fillColor=none;align=left;verticalAlign=top;spacingLeft=4;spacingRight=4;overflow=hidden;rotatable=0;points=[[0,0.5],[1,0.5]];portConstraint=eastwest;whiteSpace=wrap;html=1;" vertex="1" parent="SVwP42pwTf9vh0mIJkaT-14">
          <mxGeometry y="26" width="140" height="26" as="geometry" />
        </mxCell>
        <mxCell id="SVwP42pwTf9vh0mIJkaT-25" value="&lt;span style=&quot;font-size: 14px;&quot;&gt;購物網站&lt;/span&gt;" style="html=1;whiteSpace=wrap;" vertex="1" parent="1">
          <mxGeometry x="90" y="110" width="110" height="50" as="geometry" />
        </mxCell>
        <mxCell id="SVwP42pwTf9vh0mIJkaT-19" value="管理員可以上架、下架、調整金額&lt;div&gt;消費者:選取產品、付費&lt;/div&gt;" style="shape=callout;whiteSpace=wrap;html=1;perimeter=calloutPerimeter;size=40;position=0.4;base=30;position2=0.65;direction=east;fillColor=#f8cecc;strokeColor=#b85450;align=left;" vertex="1" parent="1">
          <mxGeometry x="45" y="20" width="200" height="100" as="geometry" />
        </mxCell>
        <mxCell id="SVwP42pwTf9vh0mIJkaT-34" value="name" style="endArrow=none;endFill=0;html=1;edgeStyle=orthogonalEdgeStyle;align=left;verticalAlign=top;rounded=0;" edge="1" parent="1" source="SVwP42pwTf9vh0mIJkaT-25">
          <mxGeometry x="-1" relative="1" as="geometry">
            <mxPoint x="200" y="134.5" as="sourcePoint" />
            <mxPoint x="360" y="134.5" as="targetPoint" />
          </mxGeometry>
        </mxCell>
        <mxCell id="SVwP42pwTf9vh0mIJkaT-35" value="1" style="edgeLabel;resizable=0;html=1;align=left;verticalAlign=bottom;" connectable="0" vertex="1" parent="SVwP42pwTf9vh0mIJkaT-34">
          <mxGeometry x="-1" relative="1" as="geometry" />
        </mxCell>
        <mxCell id="SVwP42pwTf9vh0mIJkaT-49" value="0...*" style="edgeLabel;resizable=0;html=1;align=left;verticalAlign=bottom;" connectable="0" vertex="1" parent="1">
          <mxGeometry x="330" y="135" as="geometry" />
        </mxCell>
        <mxCell id="SVwP42pwTf9vh0mIJkaT-51" value="0..*" style="edgeLabel;resizable=0;html=1;align=left;verticalAlign=bottom;" connectable="0" vertex="1" parent="1">
          <mxGeometry x="180" y="306" as="geometry" />
        </mxCell>
        <mxCell id="SVwP42pwTf9vh0mIJkaT-52" value="1" style="edgeLabel;resizable=0;html=1;align=left;verticalAlign=bottom;" connectable="0" vertex="1" parent="1">
          <mxGeometry x="145" y="181" as="geometry" />
        </mxCell>
      </root>
    </mxGraphModel>
  </diagram>
</mxfile>
